<svg xmlns="http://www.w3.org/2000/svg" fill="none" viewBox="0 0 30 30"><path d="M20.542 22.125a1.852 1.852 0 0 1-.459-1.23c0-.458.153-.84.459-1.145l3.083-3.083H11.667c-.473 0-.868-.16-1.187-.48A1.609 1.609 0 0 1 10 15c0-.472.16-.868.48-1.188a1.611 1.611 0 0 1 1.187-.479h11.958l-3.083-3.083a1.621 1.621 0 0 1-.5-1.187c0-.459.166-.855.5-1.188a1.49 1.49 0 0 1 1.146-.5c.458 0 .84.153 1.145.458l6 6c.167.167.285.348.355.542.07.194.104.403.104.625 0 .222-.035.43-.104.625-.07.194-.188.375-.355.542l-6 6c-.36.36-.756.52-1.186.478a1.753 1.753 0 0 1-1.105-.52ZM3.333 30a3.214 3.214 0 0 1-2.355-.978A3.214 3.214 0 0 1 0 26.667V3.333C0 2.417.326 1.632.978.978A3.214 3.214 0 0 1 3.333 0h10c.473 0 .869.16 1.189.478.319.32.478.716.478 1.189 0 .472-.16.867-.478 1.186-.32.32-.716.48-1.189.48h-10v23.334h10c.473 0 .869.16 1.189.48.319.319.478.714.478 1.186 0 .473-.16.868-.478 1.187-.32.32-.716.48-1.189.48h-10Z" fill="#CCC"/></svg>