<svg xmlns="http://www.w3.org/2000/svg" fill="none" viewBox="0 0 35 35"><g clip-path="url(#a)"><path d="M31.607 27.057a14 14 0 0 1-2.44-2.849 12.278 12.278 0 0 1-1.313-4.676v-4.803a10.51 10.51 0 0 0-9.178-10.451V3.024a1.298 1.298 0 0 0-2.595 0v1.273A10.51 10.51 0 0 0 7.01 14.73v4.803a12.279 12.279 0 0 1-1.313 4.676 14.003 14.003 0 0 1-2.401 2.849.972.972 0 0 0-.33.73v1.321a.972.972 0 0 0 .971.973h27.028a.972.972 0 0 0 .973-.973v-1.322a.973.973 0 0 0-.331-.729Zm-26.62 1.08a15.72 15.72 0 0 0 2.373-2.918 13.845 13.845 0 0 0 1.604-5.687v-4.803a8.498 8.498 0 1 1 16.985 0v4.803c.119 1.99.666 3.93 1.604 5.688a15.717 15.717 0 0 0 2.372 2.916H4.987Zm12.513 5.19a2.596 2.596 0 0 0 2.508-2.216h-5.114a2.596 2.596 0 0 0 2.606 2.217Z" fill="#CCC"/></g><defs><clipPath id="a"><path d="M0 0h35v35H0z" fill="#fff"/></clipPath></defs></svg>