<svg xmlns="http://www.w3.org/2000/svg" fill="none" viewBox="0 0 14 14"><path d="m13.851 12.931-3.77-3.54a4.96 4.96 0 0 0 1.261-3.657c-.096-1.326-.733-2.566-1.779-3.463A5.712 5.712 0 0 0 5.73.922a5.682 5.682 0 0 0-3.764 1.511C.964 3.373.387 4.64.355 5.968c-.032 1.329.482 2.618 1.437 3.6.955.981 2.275 1.58 3.688 1.67a5.74 5.74 0 0 0 3.895-1.184l3.77 3.54.706-.663ZM1.37 6.094c0-.835.263-1.65.757-2.344a4.445 4.445 0 0 1 2.017-1.554 4.766 4.766 0 0 1 2.596-.24 4.59 4.59 0 0 1 2.3 1.155 4.145 4.145 0 0 1 1.23 2.16 3.98 3.98 0 0 1-.255 2.437A4.29 4.29 0 0 1 8.36 9.602a4.704 4.704 0 0 1-2.497.71 4.65 4.65 0 0 1-3.176-1.236A4.097 4.097 0 0 1 1.37 6.094Z" fill="#CCC"/></svg>